<svg width="100" height="125" xmlns="http://www.w3.org/2000/svg">
 <g>
  <title>background</title>
  <rect x="-1" y="-1" width="102" height="127" id="canvas_background" fill="none"/>
 </g>

 <g>
  <title>Layer 1</title>
  <path d="m74.58356,67.016286l0,-27.707c0,-0.321 -0.13501,-0.622 -0.33,-0.907c2.41,-3.469 3.89,-7.633 4.071,-12.133l-45.825,0c0.054,1.341 0.229,2.65 0.50399,3.921l-14.92,0c0.131,3.26 1.224,6.272 3.001,8.762l0,3.902l-7.09,7.09c2.07,1.91 4.519,3.173 7.09,3.81l0,13.512c-2.664,1.781 -4.423,4.815 -4.423,8.253c0,5.463 4.43701,9.907 9.897,9.922c2.435,6.043 7.36801,10.81 13.52,13.022l0,3.423l-1.244,0c-7.401,0 -13.423,6.021 -13.423,13.423c0,0.378 0.025,0.749 0.056,1.117l0.108,1.306l44.518,0l0.108,-1.306c0.03001,-0.368 0.056,-0.739 0.056,-1.117c0,-7.401 -6.021,-13.423 -13.423,-13.423l-1.91,0l0,-3.2c6.548,-2.128 11.802,-7.119 14.28401,-13.5c5.414,-0.068 9.79899,-4.487 9.79899,-9.917c-0.00199,-3.438 -1.76099,-6.471 -4.424,-8.253l0.00001,0zm-49.424,15.437c-3.223,-0.66 -5.654,-3.519 -5.654,-6.934s2.432,-6.273 5.654,-6.934l0,13.868zm31.673,22.278c5.691,0 10.347,4.517 10.569,10.154l-39.138,0c0.223,-5.638 4.878,-10.154 10.569,-10.154l1.249,0c0.048,4.052 3.356,7.334 7.418,7.334s7.37,-3.282 7.418,-7.334l1.915,0zm-13.91,-0.089l0,-5.367c1.583,0.345 3.224,0.533 4.911,0.533c1.451,0 2.868,-0.14 4.244,-0.397l0,5.23c0,2.524 -2.053,4.577 -4.577,4.577s-4.578,-2.051 -4.578,-4.576zm12.40999,-21.123c0,3.722 -3.02799,6.75 -6.75,6.75l-1.5,0c-3.722,0 -6.75,-3.028 -6.75,-6.75l0,-1.75l15,0l0,1.75zm12.077,-5.71l-39.154,0l0,-23.897c3.014,-0.614 5.888,-2.086 8.226,-4.424c1.391,-1.391 2.459,-2.977 3.24,-4.663c0.757,-0.268 1.495,-0.575 2.195,-0.948c3.786,2.761 8.45,4.392 13.495,4.392c4.368,0 8.447,-1.226 11.922,-3.345c0.049,0.499 0.077,1.004 0.077,1.515l0,31.37l-0.001,0zm3.09601,4.394l0,-13.868c3.223,0.66 5.65399,3.519 5.65399,6.934s-2.43099,6.273 -5.65399,6.934z" id="svg_8"/>
  <ellipse fill="#000000" stroke-width="null" stroke-opacity="null" fill-opacity="null" cx="66.099859" cy="26.375321" id="svg_28" rx="13.124882" ry="11.624896" stroke="null"/>
  <ellipse fill="#000000" stroke="null" stroke-width="null" stroke-opacity="null" fill-opacity="null" cx="44.350054" cy="27.750309" id="svg_29" rx="13.624878" ry="10.749904"/>
  <ellipse fill="#000000" stroke="null" stroke-width="null" stroke-opacity="null" fill-opacity="null" cx="28.975191" cy="33.125261" id="svg_30" rx="12.749886" ry="10.874903"/>
  <ellipse fill="#000000" stroke="null" stroke-width="null" stroke-opacity="null" fill-opacity="null" cx="73.974789" cy="38.500213" id="svg_31" rx="5.999946" ry="6.499942"/>
  <ellipse stroke="null" fill="#000000" stroke-width="null" stroke-opacity="null" fill-opacity="null" cx="19.097343" cy="44.439839" id="svg_32" rx="7.499897" ry="7.499933"/>
  <g id="svg_21">
   <path id="svg_18" d="m14.831002,-407.778989l-12.951431,115.678002c-5.952832,39.497844 -32.12384,71.54124 -71.648498,71.54124l-209.046293,0c-53.682745,0 -77.654959,-159.948837 -84.224526,-213.899727l-44.136762,0c-6.569567,53.95089 -30.541781,213.899727 -84.224526,213.899727l-209.046293,0c-39.551473,0 -65.695667,-32.043397 -71.648498,-71.54124l-12.951431,-115.678002l-29.093795,0l0,-53.736374l25.098426,0c4.799806,-33.759528 34.483521,-54.004519 70.683174,-54.004519l234.761453,0c25.098426,0 49.794634,9.70687 64.569455,26.814558l67.814017,0c14.774821,-17.107688 39.497844,-26.814558 64.569455,-26.814558l234.761453,0c36.226468,0 65.883368,20.244991 70.709989,53.977705l25.098426,0l0,53.736374l-29.093795,0l0,0.026815zm-523.688314,-53.495043l-178.745842,0c-23.730884,0 -43.010551,16.785913 -43.010551,40.624055l10.752638,106.346536c3.566336,23.838142 19.226038,40.65087 43.010551,40.65087l157.267381,0c38.720221,0 53.763188,-146.970591 53.763188,-146.970591c0,-23.864956 -19.279667,-40.65087 -43.037365,-40.65087l0,0zm426.244211,0l-178.745842,0c-23.784513,0 -43.037365,16.785913 -43.037365,40.624055c0,0 15.042967,146.970591 53.763188,146.970591l157.267381,0c23.784513,0 39.444215,-16.812728 43.010551,-40.65087l10.752638,-106.346536c0,-23.811327 -19.279667,-40.59724 -43.010551,-40.59724l0,0zm-34.456707,80.390044l0.321775,-3.083674c0,-13.35365 -9.760499,-24.213546 -21.773421,-24.213546l-32.016582,0l0,-26.573227l49.633746,0c16.812728,0 30.461338,13.487723 30.461338,30.112748l-2.440125,23.784513l-24.186731,0l0,-0.026815z" fill="#000000" clip-rule="evenodd" fill-rule="evenodd"/>
  </g>
  <style transform="matrix(1.695421110424732,0,0,1.695421110424732,0,0) " type="text/css">.st0{fill:none;stroke:#000000;stroke-linecap:round;stroke-linejoin:round;stroke-miterlimit:10;}
	.st1{fill:none;stroke:#369EC4;stroke-width:0.78;stroke-linecap:round;stroke-linejoin:round;stroke-miterlimit:10;}
	.st2{fill:none;stroke:#EF6B59;stroke-width:0.78;stroke-linecap:round;stroke-linejoin:round;stroke-miterlimit:10;}
	.st3{fill:none;stroke:#F1B150;stroke-width:0.78;stroke-linecap:round;stroke-linejoin:round;stroke-miterlimit:10;}
	.st4{fill:none;stroke:#000000;stroke-miterlimit:10;}
	.st5{fill:none;stroke:#000000;stroke-linecap:round;stroke-linejoin:round;}
	.st6{fill:none;stroke:#000000;stroke-linecap:round;stroke-linejoin:round;stroke-dasharray:2.3333,2.3333;}
	.st7{stroke:#000000;stroke-linecap:round;stroke-linejoin:round;stroke-miterlimit:10;}
	.st8{stroke:#000000;stroke-miterlimit:10;}</style>
  <g stroke="null" transform="matrix(1.4233132863748437,0,0,1.4233132863748437,3.630702331230408,18.826760111784125) " id="svg_25">
   <g stroke="null" id="svg_26">
    <path stroke="null" id="svg_27" d="m23.952169,39.494234c-3.309,0 -6,-2.691 -6,-6s2.691,-6 6,-6s6,2.691 6,6s-2.691,6 -6,6zm0,-11c-2.757,0 -5,2.243 -5,5s2.243,5 5,5s5,-2.243 5,-5s-2.243,-5 -5,-5z"/>
   </g>
   <g stroke="null" id="svg_33">
    <path stroke="null" id="svg_34" d="m32.526169,31.940234c-0.942,-0.582 -2.191,-0.584 -3.137,-0.006l-0.521,-0.854c1.263,-0.771 2.927,-0.766 4.184,0.008l-0.526,0.852z"/>
   </g>
   <g stroke="null" id="svg_35">
    <path stroke="null" id="svg_36" d="m37.952169,39.494234c-3.309,0 -6,-2.691 -6,-6s2.691,-6 6,-6s6,2.691 6,6s-2.691,6 -6,6zm0,-11c-2.757,0 -5,2.243 -5,5s2.243,5 5,5s5,-2.243 5,-5s-2.243,-5 -5,-5z"/>
   </g>
   <g stroke="null" id="svg_37">
    <path stroke="null" id="svg_38" d="m18.452169,32.494234l-1,0c-0.276,0 -0.5,-0.224 -0.5,-0.5s0.224,-0.5 0.5,-0.5l1,0c0.276,0 0.5,0.224 0.5,0.5s-0.224,0.5 -0.5,0.5z"/>
   </g>
   <g stroke="null" id="svg_39">
    <path stroke="null" id="svg_40" d="m44.452169,32.494234l-1,0c-0.276,0 -0.5,-0.224 -0.5,-0.5s0.224,-0.5 0.5,-0.5l1,0c0.276,0 0.5,0.224 0.5,0.5s-0.224,0.5 -0.5,0.5z"/>
   </g>
   <g stroke="null" id="svg_41">
    <path stroke="null" id="svg_42" d="m20.624169,34.322234c-0.128,0 -0.256,-0.049 -0.354,-0.146c-0.195,-0.195 -0.195,-0.512 0,-0.707l5.417,-5.417c0.195,-0.195 0.512,-0.195 0.707,0s0.195,0.512 0,0.707l-5.417,5.417c-0.097,0.097 -0.225,0.146 -0.353,0.146z"/>
   </g>
   <g stroke="null" id="svg_43">
    <path stroke="null" id="svg_44" d="m20.119169,37.827234c-0.125,0 -0.251,-0.047 -0.349,-0.142c-0.198,-0.191 -0.202,-0.508 -0.01,-0.706l2.5,-2.571c0.193,-0.197 0.509,-0.203 0.707,-0.01c0.198,0.192 0.202,0.509 0.01,0.707l-2.5,2.571c-0.098,0.101 -0.228,0.151 -0.358,0.151z"/>
   </g>
   <g stroke="null" id="svg_45">
    <path stroke="null" id="svg_46" d="m24.047169,33.827234c-0.129,0 -0.259,-0.05 -0.357,-0.15c-0.193,-0.197 -0.19,-0.514 0.007,-0.707l3.794,-3.723c0.196,-0.193 0.513,-0.192 0.707,0.007c0.193,0.197 0.19,0.514 -0.007,0.707l-3.794,3.723c-0.097,0.096 -0.223,0.143 -0.35,0.143z"/>
   </g>
   <g stroke="null" id="svg_47">
    <path stroke="null" id="svg_48" d="m34.624169,34.322234c-0.128,0 -0.256,-0.049 -0.354,-0.146c-0.195,-0.195 -0.195,-0.512 0,-0.707l5.417,-5.417c0.195,-0.195 0.512,-0.195 0.707,0s0.195,0.512 0,0.707l-5.417,5.417c-0.097,0.097 -0.225,0.146 -0.353,0.146z"/>
   </g>
   <g stroke="null" id="svg_49">
    <path stroke="null" id="svg_50" d="m34.119169,37.827234c-0.125,0 -0.251,-0.047 -0.349,-0.142c-0.198,-0.192 -0.202,-0.509 -0.01,-0.707l2.5,-2.571c0.193,-0.197 0.509,-0.203 0.707,-0.01c0.198,0.192 0.202,0.509 0.01,0.707l-2.5,2.571c-0.098,0.102 -0.228,0.152 -0.358,0.152z"/>
   </g>
   <g stroke="null" id="svg_51">
    <path stroke="null" id="svg_52" d="m38.047169,33.827234c-0.129,0 -0.259,-0.05 -0.357,-0.15c-0.193,-0.197 -0.19,-0.514 0.007,-0.707l3.794,-3.723c0.196,-0.193 0.513,-0.192 0.707,0.007c0.193,0.197 0.19,0.514 -0.007,0.707l-3.794,3.723c-0.097,0.096 -0.223,0.143 -0.35,0.143z"/>
   </g>
  </g>
 </g>
</svg>