<svg width="100" height="125" xmlns="http://www.w3.org/2000/svg"><path d="M74.584 67.016V39.31c0-.32-.135-.622-.33-.907a22.816 22.816 0 0 0 4.07-12.133H32.5c.054 1.341.229 2.65.504 3.921h-14.92a16.161 16.161 0 0 0 3 8.762v3.902l-7.09 7.09a16.147 16.147 0 0 0 7.09 3.81v13.512a9.92 9.92 0 0 0-4.422 8.253c0 5.463 4.437 9.907 9.897 9.922a23.005 23.005 0 0 0 13.52 13.022v3.423h-1.244c-7.401 0-13.423 6.021-13.423 13.423 0 .378.025.75.056 1.117l.108 1.306h44.518l.108-1.306c.03-.368.056-.739.056-1.117 0-7.4-6.021-13.423-13.423-13.423h-1.91v-3.2a22.987 22.987 0 0 0 14.284-13.5c5.414-.068 9.799-4.487 9.799-9.917a9.93 9.93 0 0 0-4.424-8.253zM25.16 82.453c-3.223-.66-5.654-3.519-5.654-6.934s2.432-6.273 5.654-6.934v13.868zm31.673 22.278c5.69 0 10.347 4.517 10.569 10.154H28.264c.223-5.638 4.878-10.154 10.569-10.154h1.249c.048 4.052 3.356 7.334 7.418 7.334s7.37-3.282 7.418-7.334h1.915zm-13.91-.089v-5.367c1.583.345 3.224.533 4.91.533 1.452 0 2.869-.14 4.245-.397v5.23c0 2.524-2.053 4.577-4.577 4.577s-4.578-2.05-4.578-4.576zm12.41-21.123a6.758 6.758 0 0 1-6.75 6.75h-1.5a6.758 6.758 0 0 1-6.75-6.75v-1.75h15v1.75zm12.077-5.71H28.256V53.912a16.157 16.157 0 0 0 8.226-4.424 16.18 16.18 0 0 0 3.24-4.663 16.036 16.036 0 0 0 2.195-.948 22.825 22.825 0 0 0 13.495 4.392c4.368 0 8.447-1.226 11.922-3.345.049.5.077 1.004.077 1.515v31.37h-.001zm3.096 4.394V68.335c3.223.66 5.654 3.52 5.654 6.934s-2.431 6.273-5.654 6.934z"/><ellipse fill="#000" stroke-width="null" stroke-opacity="null" fill-opacity="null" cx="66.1" cy="26.375" rx="13.125" ry="11.625" stroke="null"/><ellipse fill="#000" stroke="null" stroke-width="null" stroke-opacity="null" fill-opacity="null" cx="44.35" cy="27.75" rx="13.625" ry="10.75"/><ellipse fill="#000" stroke="null" stroke-width="null" stroke-opacity="null" fill-opacity="null" cx="28.975" cy="33.125" rx="12.75" ry="10.875"/><ellipse fill="#000" stroke="null" stroke-width="null" stroke-opacity="null" fill-opacity="null" cx="73.975" cy="38.5" rx="6" ry="6.5"/><ellipse stroke="null" fill="#000" stroke-width="null" stroke-opacity="null" fill-opacity="null" cx="19.097" cy="44.44" rx="7.5" ry="7.5"/><path d="M14.831-407.779L1.88-292.101c-5.953 39.498-32.124 71.541-71.649 71.541h-209.046c-53.683 0-77.655-159.949-84.225-213.9h-44.137c-6.57 53.951-30.541 213.9-84.224 213.9h-209.046c-39.552 0-65.696-32.043-71.649-71.541l-12.951-115.678h-29.094v-53.736h25.098c4.8-33.76 34.484-54.005 70.684-54.005h234.761c25.098 0 49.795 9.707 64.57 26.815h67.813c14.775-17.108 39.498-26.815 64.57-26.815h234.761c36.227 0 65.884 20.245 70.71 53.978h25.099v53.736H14.83v.027zm-523.688-53.495h-178.746c-23.731 0-43.01 16.786-43.01 40.624l10.752 106.347c3.566 23.838 19.226 40.65 43.01 40.65h157.268c38.72 0 53.763-146.97 53.763-146.97 0-23.865-19.28-40.651-43.037-40.651zm426.244 0H-261.36c-23.784 0-43.037 16.786-43.037 40.624 0 0 15.043 146.97 53.763 146.97h157.267c23.785 0 39.444-16.812 43.01-40.65l10.753-106.347c0-23.811-19.28-40.597-43.01-40.597zm-34.457 80.39l.322-3.084c0-13.353-9.76-24.213-21.773-24.213h-32.017v-26.573h49.634c16.812 0 30.461 13.487 30.461 30.112l-2.44 23.785h-24.187v-.027z" fill="#000" clip-rule="evenodd" fill-rule="evenodd"/><g stroke="null"><path stroke="null" d="M37.722 75.04c-4.71 0-8.54-3.83-8.54-8.54s3.83-8.54 8.54-8.54 8.54 3.83 8.54 8.54-3.83 8.54-8.54 8.54zm0-15.657c-3.924 0-7.116 3.192-7.116 7.117s3.192 7.116 7.116 7.116 7.117-3.192 7.117-7.116-3.193-7.117-7.117-7.117z" stroke-width="1.42331"/><path stroke="null" d="M49.926 64.288c-1.341-.829-3.119-.831-4.465-.009l-.742-1.215c1.798-1.098 4.166-1.09 5.955.011l-.748 1.213z" stroke-width="1.42331"/><path stroke="null" d="M57.649 75.04c-4.71 0-8.54-3.83-8.54-8.54s3.83-8.54 8.54-8.54 8.54 3.83 8.54 8.54-3.83 8.54-8.54 8.54zm0-15.657c-3.925 0-7.117 3.192-7.117 7.117s3.192 7.116 7.117 7.116 7.116-3.192 7.116-7.116-3.192-7.117-7.116-7.117zM29.894 65.076H28.47a.712.712 0 0 1 0-1.423h1.423a.712.712 0 0 1 0 1.423z" stroke-width="1.42331"/><path stroke="null" d="M66.9 65.076h-1.423a.712.712 0 0 1 0-1.423H66.9a.712.712 0 0 1 0 1.423zM32.985 67.678a.712.712 0 0 1-.504-1.214l7.71-7.71a.712.712 0 0 1 1.007 1.006l-7.71 7.71a.71.71 0 0 1-.503.208zM32.267 72.667a.712.712 0 0 1-.511-1.207l3.558-3.66a.712.712 0 0 1 1.02.993l-3.558 3.659a.707.707 0 0 1-.51.215zM37.857 66.974a.71.71 0 0 1-.498-1.22l5.4-5.3a.712.712 0 0 1 .996 1.016l-5.4 5.3a.703.703 0 0 1-.498.204zM52.912 67.678a.712.712 0 0 1-.504-1.214l7.71-7.71a.712.712 0 0 1 1.006 1.006l-7.71 7.71a.71.71 0 0 1-.502.208zM52.193 72.667a.712.712 0 0 1-.511-1.209L55.24 67.8a.712.712 0 0 1 1.02.992l-3.557 3.66a.703.703 0 0 1-.51.216zM57.784 66.974a.71.71 0 0 1-.498-1.22l5.4-5.3a.712.712 0 0 1 .996 1.016l-5.4 5.3a.703.703 0 0 1-.498.204z" stroke-width="1.42331"/></g></svg>